# xmcd CD database file
# Copyright (C) 1997 Ti Kan
#
# Track frame offsets:
#  150
#  17547
#  29362
#  46662
#  58817
#  74750
#  91942
#  101895
#  118205
#  134407
#
# Disc length: 2019 seconds
#
# Revision: 1
# Processed by: cddbd v1.4b41PL1 Copyright (c) Steve Scherf et al.
# Submitted via: CDWizzard Release:4.22
#
DISCID=8d07e10a
DTITLE=Ray Charles - Seven Spanish Angels and Other Hits
DYEAR=1900
DGENRE=
TTITLE0=Seven Spanish Angels
TTITLE1=Two Old Cats Like Us
TTITLE2=Born to Love Me
TTITLE3=Rock and Roll Shoes
TTITLE4=Anybody With The Blues
TTITLE5=Do I Ever Cross Your Mind
TTITLE6=We Didn't See A Thing
TTITLE7=A Little Bit Of Heaven
TTITLE8=Let Your Love Flow
TTITLE9=Dixie Moon
EXTD=
EXTT0=
EXTT1=
EXTT2=
EXTT3=
EXTT4=
EXTT5=
EXTT6=
EXTT7=
EXTT8=
EXTT9=
PLAYORDER=
